Coordinates
version=1
nRows=32
nColumns=12
inDegrees=yes

Units are S.I. units (second, meters, Newtons, ...)
Angles are in degrees

endheader
time	SC_y	SC_z	SC_x	AC_y	AC_z	AC_x	GH_y	GH_z	GH_yy	EL_x	PS_y
       0.0              -38.47          4.045          7.227          60.44         -7.328         0.6665         -171.1          35.53          150.4          91.82          55.17
    0.0407              -38.47          4.046          7.235          60.44         -7.328         0.6662         -171.1          35.53          150.4          91.82          55.18
    0.0814              -38.47          4.048          7.244          60.44         -7.328          0.666         -171.0          35.53          150.3          91.81          55.18
    0.1221              -38.47           4.05          7.253          60.44         -7.328         0.6656         -171.0          35.54          150.3           91.8          55.18
    0.1628              -38.46          4.052          7.263          60.44         -7.328         0.6653         -171.0          35.54          150.2           91.8          55.19
    0.2035              -38.46          4.054          7.274          60.44         -7.328          0.665         -171.0          35.54          150.2          91.79          55.19
    0.2442              -38.46          4.056          7.285          60.44         -7.328         0.6646         -171.0          35.54          150.1          91.78           55.2
    0.2849              -38.45          4.059          7.297          60.44         -7.328         0.6642         -171.0          35.54          150.1          91.77           55.2
    0.3256              -38.45          4.061           7.31          60.44         -7.328         0.6638         -170.9          35.55          150.0          91.76          55.21
    0.3663              -38.44          4.064          7.324          60.44         -7.328         0.6633         -170.9          35.55          150.0          91.75          55.21
     0.407              -38.44          4.067          7.338          60.44         -7.328         0.6628         -170.9          35.55          149.9          91.74          55.22
    0.4477              -38.44           4.07          7.354          60.44         -7.328         0.6623         -170.9          35.55          149.8          91.72          55.23
    0.4884              -38.43          4.074          7.372          60.44         -7.328         0.6617         -170.8          35.56          149.7          91.71          55.23
    0.5291              -38.43          4.078           7.39          60.44         -7.328         0.6611         -170.8          35.56          149.7          91.69          55.24
    0.5698              -38.42          4.082           7.41          60.44         -7.328         0.6604         -170.8          35.56          149.6          91.68          55.25
    0.6105              -38.41          4.086          7.432          60.44         -7.328         0.6597         -170.7          35.57          149.5          91.66          55.26
    0.6512              -38.41          4.091          7.456          60.44         -7.328         0.6589         -170.7          35.57          149.4          91.64          55.27
    0.6919               -38.4          4.096          7.482          60.44         -7.327          0.658         -170.7          35.57          149.2          91.62          55.28
    0.7326              -38.39          4.102           7.51          60.44         -7.327          0.657         -170.6          35.58          149.1           91.6          55.29
    0.7733              -38.38          4.108          7.541          60.43         -7.327          0.656         -170.6          35.58          149.0          91.58          55.31
     0.814              -38.37          4.115          7.575          60.43         -7.327         0.6549         -170.5          35.59          148.8          91.55          55.32
    0.8547              -38.36          4.122          7.612          60.43         -7.327         0.6536         -170.5           35.6          148.6          91.52          55.34
    0.8954              -38.35          4.131          7.653          60.43         -7.327         0.6522         -170.4           35.6          148.5          91.49          55.36
    0.9361              -38.34           4.14          7.699          60.43         -7.327         0.6507         -170.3          35.61          148.3          91.45          55.38
    0.9768              -38.32           4.15           7.75          60.43         -7.327          0.649         -170.3          35.62          148.0          91.41           55.4
     1.018               -38.3          4.161          7.806          60.43         -7.327         0.6471         -170.2          35.63          147.8          91.37          55.42
     1.058              -38.29          4.174           7.87          60.43         -7.326          0.645         -170.1          35.64          147.5          91.32          55.45
     1.099              -38.27          4.189          7.941          60.43         -7.326         0.6426         -170.0          35.65          147.1          91.26          55.48
      1.14              -38.24          4.205          8.022          60.43         -7.326         0.6399         -169.8          35.66          146.8           91.2          55.52
      1.18              -38.22          4.223          8.114          60.42         -7.326         0.6368         -169.7          35.68          146.4          91.12          55.55
     1.221              -38.18          4.244          8.218          60.42         -7.325         0.6333         -169.5           35.7          145.9          91.04           55.6
     1.262              -38.15          4.268          8.338          60.42         -7.325         0.6293         -169.4          35.72          145.3          90.95          55.65
